<svg xmlns="http://www.w3.org/2000/svg" width="1500" height="780" viewBox="0 0 1500 780" role="img">
<rect width="1500" height="780" rx="24" fill="#fbfdff"/>
<style>text{font-family:Arial,Helvetica,sans-serif}.h{font-weight:700;fill:#12263a}.s{fill:#40576b}.lab{font-size:16px;fill:#20394d}.num{font-size:14px;fill:#20394d}</style>
<text x="70" y="70" font-size="34" class="h">Early and full post-pulse detector response: MaxIm versus FITS replay</text>
<text x="70" y="108" font-size="18" class="s">Early window = heater pulse plus first 5 minutes after heater off. Values are baseline-detrended |ΔY| peaks.</text>
<line x1="130" y1="600" x2="1380" y2="600" stroke="#607789"/>
<line x1="130" y1="600" x2="130" y2="180" stroke="#607789"/>
<line x1="124" y1="600.0" x2="1380" y2="600.0" stroke="#dce7ef"/>
<text x="116" y="605.0" text-anchor="end" class="num">0.0</text>
<line x1="124" y1="495.0" x2="1380" y2="495.0" stroke="#dce7ef"/>
<text x="116" y="500.0" text-anchor="end" class="num">0.3</text>
<line x1="124" y1="390.0" x2="1380" y2="390.0" stroke="#dce7ef"/>
<text x="116" y="395.0" text-anchor="end" class="num">0.6</text>
<line x1="124" y1="285.0" x2="1380" y2="285.0" stroke="#dce7ef"/>
<text x="116" y="290.0" text-anchor="end" class="num">0.9</text>
<line x1="124" y1="180.0" x2="1380" y2="180.0" stroke="#dce7ef"/>
<text x="116" y="185.0" text-anchor="end" class="num">1.2</text>
<rect x="930" y="140" width="22" height="22" fill="#2b7ca8" rx="4"/><text x="960" y="157" class="lab">MaxIm early</text>
<rect x="1055" y="140" width="22" height="22" fill="#78a8c7" rx="4"/><text x="1085" y="157" class="lab">FITS early</text>
<rect x="1180" y="140" width="22" height="22" fill="#ad6b32" rx="4"/><text x="1210" y="157" class="lab">MaxIm post</text>
<rect x="1305" y="140" width="22" height="22" fill="#d59a59" rx="4"/><text x="1335" y="157" class="lab">FITS post</text>
<rect x="210" y="439.0" width="34" height="161.0" fill="#2b7ca8" rx="5"/>
<text x="227" y="431.0" text-anchor="middle" class="num">0.460</text>
<rect x="258" y="349.1" width="34" height="250.9" fill="#78a8c7" rx="5"/>
<text x="275" y="341.1" text-anchor="middle" class="num">0.717</text>
<rect x="306" y="289.2" width="34" height="310.8" fill="#ad6b32" rx="5"/>
<text x="323" y="281.2" text-anchor="middle" class="num">0.888</text>
<rect x="354" y="190.5" width="34" height="409.5" fill="#d59a59" rx="5"/>
<text x="371" y="182.5" text-anchor="middle" class="num">1.170</text>
<text x="285" y="638" text-anchor="middle" class="lab">Grating A</text>
<rect x="510" y="566.0" width="34" height="34.0" fill="#2b7ca8" rx="5"/>
<text x="527" y="558.0" text-anchor="middle" class="num">0.097</text>
<rect x="558" y="537.0" width="34" height="63.0" fill="#78a8c7" rx="5"/>
<text x="575" y="529.0" text-anchor="middle" class="num">0.180</text>
<rect x="606" y="530.0" width="34" height="70.0" fill="#ad6b32" rx="5"/>
<text x="623" y="522.0" text-anchor="middle" class="num">0.200</text>
<rect x="654" y="414.1" width="34" height="185.9" fill="#d59a59" rx="5"/>
<text x="671" y="406.1" text-anchor="middle" class="num">0.531</text>
<text x="585" y="638" text-anchor="middle" class="lab">Grating B</text>
<rect x="810" y="574.5" width="34" height="25.5" fill="#2b7ca8" rx="5"/>
<text x="827" y="566.5" text-anchor="middle" class="num">0.073</text>
<rect x="858" y="562.9" width="34" height="37.1" fill="#78a8c7" rx="5"/>
<text x="875" y="554.9" text-anchor="middle" class="num">0.106</text>
<rect x="906" y="350.5" width="34" height="249.5" fill="#ad6b32" rx="5"/>
<text x="923" y="342.5" text-anchor="middle" class="num">0.713</text>
<rect x="954" y="391.4" width="34" height="208.6" fill="#d59a59" rx="5"/>
<text x="971" y="383.4" text-anchor="middle" class="num">0.596</text>
<text x="885" y="638" text-anchor="middle" class="lab">Camera mount A</text>
<rect x="1110" y="426.8" width="34" height="173.2" fill="#2b7ca8" rx="5"/>
<text x="1127" y="418.8" text-anchor="middle" class="num">0.495</text>
<rect x="1158" y="468.8" width="34" height="131.2" fill="#78a8c7" rx="5"/>
<text x="1175" y="460.8" text-anchor="middle" class="num">0.375</text>
<rect x="1206" y="378.1" width="34" height="221.9" fill="#ad6b32" rx="5"/>
<text x="1223" y="370.1" text-anchor="middle" class="num">0.634</text>
<rect x="1254" y="420.8" width="34" height="179.2" fill="#d59a59" rx="5"/>
<text x="1271" y="412.8" text-anchor="middle" class="num">0.512</text>
<text x="1185" y="638" text-anchor="middle" class="lab">Camera mount B</text>
<text x="30" y="395" transform="rotate(-90 30 395)" class="lab">Peak |ΔY| (px)</text>
</svg>